<svg version="1.1" id="Layer_1" xmlns="http://www.w3.org/2000/svg" xmlns:xlink="http://www.w3.org/1999/xlink" x="0px" y="0px"
	 width="100%" viewBox="0 0 306 125" enable-background="new 0 0 306 125" xml:space="preserve">
<path fill="#000000" opacity="1.000000" stroke="none" 
	d="
M1.000000,60.000000 
	C1.000000,40.405910 1.000000,20.811823 1.000000,1.000000 
	C20.687027,1.000000 40.374855,1.000000 60.652367,1.345086 
	C56.457169,6.299191 52.978054,11.269071 56.645142,18.233282 
	C56.684635,18.308285 56.491737,18.505651 56.155708,18.483484 
	C55.283619,17.842207 54.663151,17.363340 53.979019,16.653725 
	C53.730637,16.126904 53.463940,15.971664 52.993874,15.663238 
	C51.622765,14.498293 50.590359,11.559983 48.582001,15.081902 
	C41.058926,22.433744 40.603683,24.319235 44.243546,30.312313 
	C37.752060,27.648726 32.785252,28.813654 28.368492,34.006321 
	C24.933727,38.044479 20.890343,41.561893 17.174149,45.366135 
	C16.357134,46.202499 15.779854,47.273060 14.546767,48.999313 
	C20.358883,48.999313 25.144806,49.001877 29.930725,48.998787 
	C40.520016,48.991951 46.532772,41.913952 44.648060,31.715057 
	C44.569862,31.291897 44.820171,30.808031 45.150284,30.632526 
	C49.305698,35.270481 53.228264,39.628361 56.815258,44.168163 
	C54.352524,42.579849 52.225365,40.809605 49.474434,38.520252 
	C45.023590,43.142319 40.733913,47.710182 36.321400,52.156124 
	C26.614635,61.936436 26.750954,64.786682 37.012882,73.155594 
	C41.017803,70.596893 44.841908,68.153725 48.349800,66.058899 
	C47.105911,67.354263 46.167614,68.291138 45.252377,69.250023 
	C41.052013,73.650696 40.905579,77.426857 44.776657,81.271545 
	C48.646240,85.114746 52.443432,84.974846 56.784786,80.699883 
	C62.099800,75.466156 67.367500,70.183784 72.605324,64.872826 
	C73.505661,63.959923 74.786163,62.818333 74.817825,61.750565 
	C75.019539,54.947964 74.920494,48.136440 74.920494,41.307880 
	C72.504753,42.080341 70.919762,42.587162 69.624718,42.769760 
	C72.000641,38.125072 71.484138,34.277798 67.817139,30.665985 
	C64.008705,26.442780 60.216808,22.553942 56.775070,18.427937 
	C57.763451,18.315781 58.497398,18.279160 59.024681,18.591467 
	C63.107967,21.010000 66.862755,20.376585 69.612419,16.743021 
	C72.155769,13.382093 71.607712,9.712051 69.135948,6.277881 
	C67.945091,4.623343 67.036438,2.765681 66.000000,1.000000 
	C146.285431,1.000000 226.570862,1.000000 306.928162,1.000000 
	C306.928162,42.593815 306.928162,84.187790 306.928162,125.890884 
	C205.000076,125.890884 103.000053,125.890884 1.000019,125.895943 
	C1.000000,105.579773 1.000000,85.258545 1.327167,64.281807 
	C3.017960,64.831512 4.429735,65.986992 5.736033,67.251442 
	C9.408812,70.806557 13.897566,71.209747 17.559719,67.844109 
	C21.720478,64.020226 25.608225,59.898903 29.606319,55.898552 
	C31.658346,53.845352 31.414598,52.275925 28.761650,50.890423 
	C24.096355,48.453964 12.595136,50.124092 8.707593,53.731949 
	C6.285488,55.979794 3.578910,57.921116 1.000000,60.000000 
M82.917946,80.441559 
	C84.656769,76.850433 84.512909,73.448654 82.779106,69.985664 
	C90.723587,79.120102 100.975029,75.436989 110.888405,75.738113 
	C109.704247,73.226418 108.849365,71.413162 108.850014,70.290031 
	C116.301910,74.324005 118.750694,71.939026 125.286652,63.212929 
	C123.265274,61.377392 121.185562,59.477852 119.093369,57.592163 
	C117.030815,55.733192 115.098450,52.527184 112.859192,52.292171 
	C106.120071,51.584911 99.259262,52.037170 92.074219,52.037170 
	C94.548920,55.152584 96.478928,57.582294 97.487000,60.360695 
	C92.253845,55.333778 87.060822,50.263828 81.755241,45.314548 
	C80.630836,44.265656 79.095314,43.657475 76.800751,42.274658 
	C77.981972,52.290230 73.910103,61.850002 81.981628,69.205109 
	C82.086891,69.301033 81.819580,69.805840 80.965508,69.482986 
	C75.431313,66.916122 71.842422,67.470581 69.307945,71.283974 
	C66.930542,74.861053 67.722397,79.706680 71.173439,82.699455 
	C73.906952,85.069977 78.826607,84.473358 82.527527,82.154053 
	C80.261269,86.576729 78.910690,90.981041 82.006210,95.618446 
	C77.672905,91.577873 73.318779,87.559341 69.013084,83.489555 
	C65.736282,80.392288 60.835880,79.936653 57.965714,82.540771 
	C54.169498,85.985092 53.843594,90.957550 57.376999,94.827698 
	C60.053600,97.759377 63.064861,100.385056 65.749397,103.310097 
	C67.673401,105.406456 69.303467,107.772575 70.351753,109.964729 
	C69.533066,109.440712 68.624313,109.017143 67.910049,108.376678 
	C62.514938,103.539055 62.533867,103.531570 57.880779,109.139908 
	C57.369343,109.756340 56.605312,110.178703 56.154453,110.827332 
	C53.738377,114.303162 55.121948,117.890747 59.781937,122.395065 
	C62.857723,125.368126 64.086159,122.476509 66.349739,121.356483 
	C71.541077,118.787796 71.206650,114.448776 71.659264,109.708260 
	C72.945915,110.678062 74.232567,111.647873 75.624634,112.697144 
	C79.525673,109.232124 83.377983,105.810387 86.892326,102.688843 
	C85.234650,99.731834 83.955246,97.449608 83.363113,95.736771 
	C88.317528,98.133308 92.570480,97.360893 96.340431,93.216492 
	C99.249802,90.018135 102.576340,87.195061 105.429817,83.952080 
	C106.602280,82.619576 107.019875,80.622856 107.780838,78.928276 
	C106.004807,78.286469 104.244461,77.148872 102.449928,77.092117 
	C96.052483,76.889778 89.416672,75.994507 84.107086,81.075653 
	C83.794868,81.374435 82.936241,81.102242 82.917946,80.441559 
M29.346972,86.226067 
	C29.816595,88.550591 29.517057,91.578659 30.888639,93.078163 
	C36.914707,99.666275 43.423691,105.812675 49.865677,112.226799 
	C53.563053,108.362701 56.979786,104.791901 60.405193,101.212036 
	C55.156002,95.538445 49.760090,89.477974 44.113918,83.660385 
	C36.760643,76.083839 35.756054,76.293480 29.346972,86.226067 
M104.190933,49.999878 
	C105.728424,49.880226 107.265907,49.760574 108.870071,49.635735 
	C108.781860,48.538105 108.934479,47.879250 108.676262,47.599155 
	C102.630119,41.040703 96.577324,34.486916 90.397614,28.055382 
	C89.792702,27.425821 87.692451,27.096821 87.411339,27.471783 
	C85.124832,30.521563 81.883713,33.554825 81.269043,37.008793 
	C80.100677,43.574039 87.409302,49.990887 94.797890,49.999649 
	C97.619598,50.002995 100.441299,50.000175 104.190933,49.999878 
M32.567730,74.061035 
	C31.654346,69.876045 28.554323,66.722168 24.862833,67.647392 
	C20.469482,68.748528 16.642067,72.107658 12.042900,74.796265 
	C16.590645,79.249146 20.012630,82.605637 23.445127,85.951340 
	C23.780020,86.277763 24.179733,86.537697 25.551872,87.617203 
	C28.085794,83.207947 30.514324,78.982086 32.567730,74.061035 
M70.929314,31.412041 
	C71.967583,32.715153 73.005844,34.018265 74.645981,36.076778 
	C78.454498,32.553806 81.733002,29.663532 84.789566,26.555025 
	C85.305489,26.030340 85.293846,24.228481 84.793877,23.589783 
	C82.103455,20.152847 79.181808,16.896910 76.351425,13.591880 
	C66.899765,21.710611 66.043816,24.418543 70.929314,31.412041 
z"/>
<path fill="#22778B" opacity="1.000000" stroke="none" 
	d="
M1.000000,60.399994 
	C3.578910,57.921116 6.285488,55.979794 8.707593,53.731949 
	C12.595136,50.124092 24.096355,48.453964 28.761650,50.890423 
	C31.414598,52.275925 31.658346,53.845352 29.606319,55.898552 
	C25.608225,59.898903 21.720478,64.020226 17.559719,67.844109 
	C13.897566,71.209747 9.408812,70.806557 5.736033,67.251442 
	C4.429735,65.986992 3.017960,64.831512 1.327167,63.813148 
	C1.000000,62.933331 1.000000,61.866661 1.000000,60.399994 
z"/>
<path fill="#802D52" opacity="1.000000" stroke="none" 
	d="
M56.407330,18.645895 
	C56.491737,18.505651 56.684635,18.308285 56.645142,18.233282 
	C52.978054,11.269071 56.457169,6.299191 61.121025,1.345086 
	C62.388889,1.000000 63.777782,1.000000 65.583336,1.000000 
	C67.036438,2.765681 67.945091,4.623343 69.135948,6.277881 
	C71.607712,9.712051 72.155769,13.382093 69.612419,16.743021 
	C66.862755,20.376585 63.107967,21.010000 59.024681,18.591467 
	C58.497398,18.279160 57.763451,18.315781 56.819778,18.371162 
	C56.514324,18.551558 56.407330,18.645895 56.407330,18.645895 
z"/>
<path fill="#5C8039" opacity="1.000000" stroke="none" 
	d="
M69.334763,43.093983 
	C70.919762,42.587162 72.504753,42.080341 74.920494,41.307880 
	C74.920494,48.136440 75.019539,54.947964 74.817825,61.750565 
	C74.786163,62.818333 73.505661,63.959923 72.605324,64.872826 
	C67.367500,70.183784 62.099800,75.466156 56.784786,80.699883 
	C52.443432,84.974846 48.646240,85.114746 44.776657,81.271545 
	C40.905579,77.426857 41.052013,73.650696 45.252377,69.250023 
	C46.167614,68.291138 47.105911,67.354263 48.406250,65.989914 
	C51.506561,62.892780 54.234207,60.212997 57.213753,57.278786 
	C60.335331,54.153034 63.311840,51.378071 66.027321,48.367661 
	C67.288200,46.969845 68.041557,45.114231 68.995384,43.353973 
	C68.965790,43.241802 69.334763,43.093983 69.334763,43.093983 
z"/>
<path fill="#22778B" opacity="1.000000" stroke="none" 
	d="
M81.726173,70.119797 
	C81.819580,69.805840 82.086891,69.301033 81.981628,69.205109 
	C73.910103,61.850002 77.981972,52.290230 76.800751,42.274658 
	C79.095314,43.657475 80.630836,44.265656 81.755241,45.314548 
	C87.060822,50.263828 92.253845,55.333778 98.101082,60.237267 
	C101.808273,63.275860 104.901375,66.437881 107.994484,69.599899 
	C108.849365,71.413162 109.704247,73.226418 110.888405,75.738113 
	C100.975029,75.436989 90.723587,79.120102 82.309586,70.151718 
	C81.840073,70.317772 81.726173,70.119797 81.726173,70.119797 
z"/>
<path fill="#802D52" opacity="1.000000" stroke="none" 
	d="
M56.961853,57.533215 
	C54.234207,60.212997 51.506561,62.892780 48.722466,65.641556 
	C44.841908,68.153725 41.017803,70.596893 37.012882,73.155594 
	C26.750954,64.786682 26.614635,61.936436 36.321400,52.156124 
	C40.733913,47.710182 45.023590,43.142319 49.474434,38.520252 
	C52.225365,40.809605 54.352524,42.579849 56.769180,44.175480 
	C57.058678,44.000870 57.041134,43.909023 56.930546,44.320740 
	C56.867256,48.999378 56.914555,53.266296 56.961853,57.533215 
z"/>
<path fill="#802D52" opacity="1.000000" stroke="none" 
	d="
M82.675850,95.167381 
	C83.955246,97.449608 85.234650,99.731834 86.892326,102.688843 
	C83.377983,105.810387 79.525673,109.232124 75.624634,112.697144 
	C74.232567,111.647873 72.945915,110.678062 71.341888,109.846390 
	C71.024521,109.984528 71.064674,110.018341 71.064674,110.018341 
	C69.303467,107.772575 67.673401,105.406456 65.749397,103.310097 
	C63.064861,100.385056 60.053600,97.759377 57.376999,94.827698 
	C53.843594,90.957550 54.169498,85.985092 57.965714,82.540771 
	C60.835880,79.936653 65.736282,80.392288 69.013084,83.489555 
	C73.318779,87.559341 77.672905,91.577873 82.382736,95.427505 
	C82.759254,95.236565 82.675850,95.167381 82.675850,95.167381 
z"/>
<path fill="#22778B" opacity="1.000000" stroke="none" 
	d="
M29.577991,85.917702 
	C35.756054,76.293480 36.760643,76.083839 44.113918,83.660385 
	C49.760090,89.477974 55.156002,95.538445 60.405193,101.212036 
	C56.979786,104.791901 53.563053,108.362701 49.865677,112.226799 
	C43.423691,105.812675 36.914707,99.666275 30.888639,93.078163 
	C29.517057,91.578659 29.816595,88.550591 29.577991,85.917702 
z"/>
<path fill="#F2B946" opacity="1.000000" stroke="none" 
	d="
M69.624718,42.769760 
	C69.334763,43.093983 68.965790,43.241802 68.675659,43.589020 
	C64.598595,46.203903 60.818806,45.498379 57.041134,43.909023 
	C57.041134,43.909023 57.058678,44.000870 57.104755,43.993553 
	C53.228264,39.628361 49.305698,35.270481 45.188950,30.543621 
	C44.994770,30.174635 44.676289,30.102661 44.676289,30.102661 
	C40.603683,24.319235 41.058926,22.433744 48.916862,15.229675 
	C50.746674,15.483368 51.930969,15.720313 53.115265,15.957257 
	C53.463940,15.971664 53.730637,16.126904 53.989426,17.021305 
	C57.121452,23.656574 61.370178,28.468081 67.833672,31.000355 
	C71.484138,34.277798 72.000641,38.125072 69.624718,42.769760 
z"/>
<path fill="#802D52" opacity="1.000000" stroke="none" 
	d="
M103.726974,50.000023 
	C100.441299,50.000175 97.619598,50.002995 94.797890,49.999649 
	C87.409302,49.990887 80.100677,43.574039 81.269043,37.008793 
	C81.883713,33.554825 85.124832,30.521563 87.411339,27.471783 
	C87.692451,27.096821 89.792702,27.425821 90.397614,28.055382 
	C96.577324,34.486916 102.630119,41.040703 108.676262,47.599155 
	C108.934479,47.879250 108.781860,48.538105 108.870071,49.635735 
	C107.265907,49.760574 105.728424,49.880226 103.726974,50.000023 
z"/>
<path fill="#5C8039" opacity="1.000000" stroke="none" 
	d="
M44.243546,30.312313 
	C44.676289,30.102661 44.994770,30.174635 44.956100,30.263542 
	C44.820171,30.808031 44.569862,31.291897 44.648060,31.715057 
	C46.532772,41.913952 40.520016,48.991951 29.930725,48.998787 
	C25.144806,49.001877 20.358883,48.999313 14.546767,48.999313 
	C15.779854,47.273060 16.357134,46.202499 17.174149,45.366135 
	C20.890343,41.561893 24.933727,38.044479 28.368492,34.006321 
	C32.785252,28.813654 37.752060,27.648726 44.243546,30.312313 
z"/>
<path fill="#F2B946" opacity="1.000000" stroke="none" 
	d="
M108.422249,69.944962 
	C104.901375,66.437881 101.808273,63.275860 98.562057,60.062920 
	C96.478928,57.582294 94.548920,55.152584 92.074219,52.037170 
	C99.259262,52.037170 106.120071,51.584911 112.859192,52.292171 
	C115.098450,52.527184 117.030815,55.733192 119.093369,57.592163 
	C121.185562,59.477852 123.265274,61.377392 125.286652,63.212929 
	C118.750694,71.939026 116.301910,74.324005 108.422249,69.944962 
z"/>
<path fill="#5C8039" opacity="1.000000" stroke="none" 
	d="
M83.019485,95.452072 
	C82.675850,95.167381 82.759254,95.236565 82.775040,95.258499 
	C78.910690,90.981041 80.261269,86.576729 82.262253,81.670456 
	C81.996986,81.186852 82.331886,81.095757 82.331886,81.095757 
	C82.936241,81.102242 83.794868,81.374435 84.107086,81.075653 
	C89.416672,75.994507 96.052483,76.889778 102.449928,77.092117 
	C104.244461,77.148872 106.004807,78.286469 107.780838,78.928276 
	C107.019875,80.622856 106.602280,82.619576 105.429817,83.952080 
	C102.576340,87.195061 99.249802,90.018135 96.340431,93.216492 
	C92.570480,97.360893 88.317528,98.133308 83.019485,95.452072 
z"/>
<path fill="#F2B946" opacity="1.000000" stroke="none" 
	d="
M32.755291,74.408630 
	C30.514324,78.982086 28.085794,83.207947 25.551872,87.617203 
	C24.179733,86.537697 23.780020,86.277763 23.445127,85.951340 
	C20.012630,82.605637 16.590645,79.249146 12.042900,74.796265 
	C16.642067,72.107658 20.469482,68.748528 24.862833,67.647392 
	C28.554323,66.722168 31.654346,69.876045 32.755291,74.408630 
z"/>
<path fill="#22778B" opacity="1.000000" stroke="none" 
	d="
M70.656876,31.153976 
	C66.043816,24.418543 66.899765,21.710611 76.351425,13.591880 
	C79.181808,16.896910 82.103455,20.152847 84.793877,23.589783 
	C85.293846,24.228481 85.305489,26.030340 84.789566,26.555025 
	C81.733002,29.663532 78.454498,32.553806 74.645981,36.076778 
	C73.005844,34.018265 71.967583,32.715153 70.656876,31.153976 
z"/>
<path fill="#5C8039" opacity="1.000000" stroke="none" 
	d="
M71.008270,109.963921 
	C71.206650,114.448776 71.541077,118.787796 66.349739,121.356483 
	C64.086159,122.476509 62.857723,125.368126 59.781937,122.395065 
	C55.121948,117.890747 53.738377,114.303162 56.154453,110.827332 
	C56.605312,110.178703 57.369343,109.756340 57.880779,109.139908 
	C62.533867,103.531570 62.514938,103.539055 67.910049,108.376678 
	C68.624313,109.017143 69.533066,109.440712 70.708214,109.991531 
	C71.064674,110.018341 71.024521,109.984528 71.008270,109.963921 
z"/>
<path fill="#F2B946" opacity="1.000000" stroke="none" 
	d="
M82.624916,80.768661 
	C82.331886,81.095757 81.996986,81.186852 82.030128,81.282837 
	C78.826607,84.473358 73.906952,85.069977 71.173439,82.699455 
	C67.722397,79.706680 66.930542,74.861053 69.307945,71.283974 
	C71.842422,67.470581 75.431313,66.916122 81.345840,69.801392 
	C81.726173,70.119797 81.840073,70.317772 81.868790,70.306610 
	C84.512909,73.448654 84.656769,76.850433 82.624916,80.768661 
z"/>
<path fill="#F3B946" opacity="1.000000" stroke="none" 
	d="
M67.817139,30.665985 
	C61.370178,28.468081 57.121452,23.656574 54.053093,17.252056 
	C54.663151,17.363340 55.283619,17.842207 56.155708,18.483484 
	C56.407330,18.645895 56.514324,18.551558 56.469620,18.608332 
	C60.216808,22.553942 64.008705,26.442780 67.817139,30.665985 
z"/>
<path fill="#F3B946" opacity="1.000000" stroke="none" 
	d="
M52.993874,15.663238 
	C51.930969,15.720313 50.746674,15.483368 49.227516,15.098649 
	C50.590359,11.559983 51.622765,14.498293 52.993874,15.663238 
z"/>
<path fill="#000000" opacity="1.000000" stroke="none" 
	d="
M56.930546,44.320740 
	C60.818806,45.498379 64.598595,46.203903 68.705246,43.701191 
	C68.041557,45.114231 67.288200,46.969845 66.027321,48.367661 
	C63.311840,51.378071 60.335331,54.153034 57.213749,57.278786 
	C56.914555,53.266296 56.867256,48.999378 56.930546,44.320740 
z"/>
</svg>